# xmcd CD database file
#
# Track frame offsets:
#	150
#	11403
#	21502
#	32482
#	42139
#	50964
#	60214
#	71409
#	83974
#	94111
#	105911
#	116058
#
# Disc length: 1707 seconds
#
# Revision: 3
# Processed by: cddbd v1.5.2PL0 Copyright (c) Steve Scherf et al.
# Submitted via: CDex 1.51
#
DISCID=9106a90c
DTITLE=Johnny Cash - Forever Johnny Cash [CD2]
DYEAR=2006
DGENRE=Country
TTITLE0=Don't Make Me Go
TTITLE1=Goodbye Little Darlin'
TTITLE2=I Love You Because
TTITLE3=Just About Time
TTITLE4=Katy Too
TTITLE5=Luther Played the Boogie
TTITLE6=Mean Eyed Cat
TTITLE7=Next in Line
TTITLE8=Straight A's in Love
TTITLE9=Thanks a Lot
TTITLE10=The Ways of a Woman in Love
TTITLE11=You're the Nearest Thing to Heaven
EXTD=YEAR: 2006
EXTT0=
EXTT1=
EXTT2=
EXTT3=
EXTT4=
EXTT5=
EXTT6=
EXTT7=
EXTT8=
EXTT9=
EXTT10=
EXTT11=
PLAYORDER=
